{"title":"The Social Network 720p BRRip x264 Feel-Free","uid":6042587,"size":2485351369,"categoryP":"video","categoryS":"hd___movies","magnet":"?xt=urn:btih:c51079eff6af194adacb365064e9b9e1e088fe14&amp;dn=The+Social+Network+720p+BRRip+x264+Feel-Free&amp;tr=udp%3A%2F%2Ftracker.openbittorrent.com%3A80&amp;tr=udp%3A%2F%2Fopen.demonii.com%3A1337&amp;tr=udp%3A%2F%2Ftracker.coppersurfer.tk%3A6969&amp;tr=udp%3A%2F%2Fexodus.desync.com%3A6969","seeders":0,"leechers":1,"uploader":"hiest","files":-1,"time":1292426744,"description":"Genre:Biography | Drama | History\nLanguage:English\nIMDb:http://www.imdb.com/title/tt1285016/\nSource:.BluRay.x264-METiS\n\n\n\nFormat : Matroska\nFile size : 2.31 GiB\nDuration : 2h 0mn\nOverall bit rate : 2 745 Kbps\n\n\nVideo\nFormat settings, CABAC : Yes\nFormat settings, ReFrames : 4 frames\nCodec ID : V_MPEG4/ISO/AVC\nDuration : 2h 0mn\nBit rate : 2 345 Kbps\nWidth : 1 280 pixels\nHeight : 528 pixels\nDisplay aspect ratio : 2.40:1\nFrame rate mode : Variable\nFrame rate : 23.976 fps\nColor space : YUV\nChroma subsampling : 4:2:0\nBit depth : 8 bits\nScan type : Progressive\nBits/(Pixel*Frame) : 0.145\nStream size : 1.94 GiB (84%)\nWriting library : x264\n\n\nAudio\nID : 2\nFormat : AC-3\nFormat/Info : Audio Coding 3\nMode extension : CM (complete main)\nCodec ID : A_AC3\nDuration : 2h 0mn\nBit rate mode : Constant\nBit rate : 384 Kbps\nChannel(s) : 6 channels\nChannel positions : Front: L C R, Side: L R, LFE\nSampling rate : 48.0 KHz\nBit depth : 16 bits\nVideo delay : -1mn 5s\nStream size : 331 MiB (14%)\nLanguage : English\n\n\nPlot:\nA story about the founders of the social-networking website, Facebook.\n\n\n\n\n\n\n\n================================== &lt;a href=&quot;\nhttp://thepiratebay.se/user/hiest&quot; rel=&quot;nofollow&quot; target=&quot;_NEW&quot;&gt;\nhttp://thepiratebay.se/user/hiest&lt;/a&gt;\n==================================\n\n\n\n\n\n\n\nScreen Shots:\n &lt;a href=&quot;\nhttp://rapidhdd.com/images/355950vlcsnap-2010-12-15-15h08m46s227.png&quot; rel=&quot;nofollow&quot; target=&quot;_NEW&quot;&gt;\nhttp://rapidhdd.com/images/355950vlcsnap-2010-12-15-15h08m46s227.png&lt;/a&gt;\n &lt;a href=&quot;\nhttp://rapidhdd.com/images/878412vlcsnap-2010-12-15-15h09m51s105.png&quot; rel=&quot;nofollow&quot; target=&quot;_NEW&quot;&gt;\nhttp://rapidhdd.com/images/878412vlcsnap-2010-12-15-15h09m51s105.png&lt;/a&gt;\n &lt;a href=&quot;\nhttp://www.rapidhdd.com/images/364187vlcsnap-2010-12-15-15h11m09s116.png&quot; rel=&quot;nofollow&quot; target=&quot;_NEW&quot;&gt;\nhttp://www.rapidhdd.com/images/364187vlcsnap-2010-12-15-15h11m09s116.png&lt;/a&gt;\n &lt;a href=&quot;\nhttp://www.rapidhdd.com/images/575749vlcsnap-2010-12-15-15h09m57s164.png&quot; rel=&quot;nofollow&quot; target=&quot;_NEW&quot;&gt;\nhttp://www.rapidhdd.com/images/575749vlcsnap-2010-12-15-15h09m57s164.png&lt;/a&gt;\n\n","torrent":{"xt":"urn:btih:c51079eff6af194adacb365064e9b9e1e088fe14","amp;dn":"The+Social+Network+720p+BRRip+x264+Feel-Free","amp;tr":["udp%3A%2F%2Ftracker.openbittorrent.com%3A80","udp%3A%2F%2Fopen.demonii.com%3A1337","udp%3A%2F%2Ftracker.coppersurfer.tk%3A6969","udp%3A%2F%2Fexodus.desync.com%3A6969"],"infoHash":"c51079eff6af194adacb365064e9b9e1e088fe14","infoHashBuffer":{"type":"Buffer","data":[197,16,121,239,246,175,25,74,218,203,54,80,100,233,185,225,224,136,254,20]},"announce":[],"urlList":[]}}